<svg version="1.2" xmlns="http://www.w3.org/2000/svg" viewBox="0 0 180 180" width="180" height="180">
	<style>
		.s0 { fill: #000000 } 
	</style>
	<g id="Layer 1">
		<path id="KAEORN" class="s0" aria-label="KAEORN"  d="m54.3 78.2v0.6q-0.8 0.1-1.6 0.5-0.8 0.4-1.5 1.4l-5.1 6.6 0.5-1.3 6.4 8.9q0.4 0.6 1 1 0.5 0.4 1.3 0.6v0.5q-0.6-0.1-1.6-0.1-0.9 0-1.6 0-0.4 0-1.1 0-0.6 0-1.6 0.1v-0.5q0.9-0.1 1.2-0.3 0.2-0.3-0.2-0.9l-3.9-5.9q-0.5-0.8-0.9-1.2-0.4-0.4-0.9-0.5-0.4-0.2-1.1-0.2v-0.5q1.1 0 1.9-0.4 0.7-0.5 1.2-1.1l2.6-3.2q0.9-1.1 1.2-1.9 0.3-0.8 0-1.2-0.4-0.4-1.5-0.4v-0.6q0.5 0.1 1 0.1 0.6 0 1.1 0 0.5 0 0.9 0 0.7 0 1.3 0 0.6 0 1-0.1zm-8.4 0v0.6q-0.9 0-1.4 0.2-0.5 0.1-0.6 0.6-0.2 0.5-0.2 1.5v13.1q0 0.9 0.2 1.4 0.1 0.5 0.6 0.7 0.5 0.1 1.4 0.2v0.5q-0.6-0.1-1.6-0.1-0.9 0-1.8 0-1 0-1.9 0-0.9 0-1.5 0.1v-0.5q0.9-0.1 1.4-0.2 0.4-0.2 0.6-0.7 0.2-0.5 0.2-1.4v-13.1q0-1-0.2-1.5-0.2-0.5-0.6-0.6-0.5-0.2-1.4-0.2v-0.6q0.6 0.1 1.5 0.1 0.9 0 1.9 0 0.9 0 1.8 0 1 0 1.6-0.1zm17.7-0.1l6.4 16.7q0.4 1 0.9 1.3 0.5 0.3 0.9 0.4v0.5q-0.5-0.1-1.2-0.1-0.8 0-1.6 0-1 0-1.9 0-0.9 0-1.5 0.1v-0.5q1.4-0.1 1.7-0.5 0.4-0.4-0.1-1.8l-4.9-13.1 0.4-0.4-4.6 12q-0.5 1.1-0.5 1.8-0.1 0.7 0.1 1.1 0.2 0.5 0.8 0.7 0.5 0.1 1.3 0.2v0.5q-0.7-0.1-1.5-0.1-0.8 0-1.5 0-0.7 0-1.1 0-0.5 0-0.9 0.1v-0.5q0.5-0.2 1.1-0.6 0.6-0.5 1-1.7l6.2-16.1q0.1 0 0.2 0 0.2 0 0.3 0zm-4.4 11.3h7.6v0.5h-7.9zm27.2-11.1q-0.1 0.9-0.2 1.8 0 0.8 0 1.3 0 0.5 0 0.9 0 0.4 0.1 0.7h-0.6q-0.2-1.5-0.5-2.4-0.3-0.9-1-1.3-0.7-0.4-2.1-0.4h-2.2q-0.9 0-1.4 0.1-0.4 0.2-0.6 0.7-0.1 0.4-0.1 1.4v13.1q0 1 0.1 1.5 0.2 0.4 0.6 0.6 0.5 0.1 1.4 0.1h1.9q1.7 0 2.6-0.4 0.8-0.5 1.2-1.5 0.4-1 0.6-2.8h0.6q-0.1 0.7-0.1 1.9 0 0.5 0 1.5 0.1 0.9 0.2 1.9-1.4 0-3 0-1.7 0-3.1 0-0.6 0-1.5 0-0.9 0-1.9 0-1.1 0-2.2 0-1.1 0-2.1 0v-0.5q0.9-0.1 1.4-0.2 0.5-0.2 0.6-0.6 0.2-0.5 0.2-1.5v-13.1q0-1-0.2-1.4-0.1-0.5-0.6-0.7-0.5-0.2-1.4-0.2v-0.5q1 0 2.1 0 1.1 0 2.2 0.1 1 0 1.9 0 0.9 0 1.5 0 1.2 0 2.8 0 1.5-0.1 2.8-0.1zm-9.4 9h4.8q0 0 0 0.3 0 0.3 0 0.3h-4.8q0 0 0-0.3 0-0.3 0-0.3zm5-3.5h0.6q-0.1 1.5-0.1 2.3 0 0.8 0 1.5 0 0.7 0 1.5 0.1 0.8 0.2 2.3h-0.7q-0.1-0.9-0.2-1.7-0.1-0.8-0.7-1.3-0.4-0.5-1.6-0.5v-0.6q0.9 0 1.3-0.3 0.5-0.4 0.7-0.9 0.2-0.6 0.3-1.2 0.1-0.6 0.2-1.1zm15.9-5.9q2.5 0 4.4 1.1 1.9 1.2 2.9 3.3 1.1 2.1 1.1 5.2 0 3-1.1 5.2-1.1 2.2-3 3.5-1.9 1.2-4.4 1.2-2.5 0-4.4-1.1-1.9-1.2-2.9-3.3-1.1-2.2-1.1-5.2 0-3 1.1-5.2 1.1-2.2 3-3.5 1.9-1.2 4.4-1.2zm-0.1 0.5q-1.8 0-3 1.2-1.3 1.2-2 3.3-0.7 2-0.7 4.8 0 2.8 0.8 4.9 0.8 2.1 2.1 3.2 1.3 1.1 2.9 1.1 1.8 0 3-1.2 1.3-1.2 2-3.3 0.7-2.1 0.7-4.8 0-2.8-0.8-4.9-0.7-2.1-2.1-3.2-1.3-1.1-2.9-1.1zm10.3 0.4v-0.5q0.6 0 1.5 0 0.9 0.1 1.8 0.1 1.2 0 2.4-0.1 1.1 0 1.6 0 2.1 0 3.5 0.6 1.5 0.6 2.2 1.7 0.7 1 0.7 2.3 0 0.8-0.4 1.7-0.3 0.9-1.1 1.7-0.7 0.8-2.1 1.3-1.3 0.5-3.4 0.5h-2.5v-0.5h2.2q1.9 0 2.9-0.6 1-0.6 1.3-1.6 0.4-1 0.4-2.2 0-2.1-1-3.2-1-1.2-3.4-1.2-1.2 0-1.6 0.5-0.3 0.4-0.3 1.8v13.1q0 1 0.1 1.5 0.2 0.4 0.6 0.6 0.5 0.1 1.4 0.2v0.5q-0.6 0-1.5 0-0.9 0-1.9 0-1 0-1.9 0-0.9 0-1.5 0v-0.5q0.9-0.1 1.4-0.2 0.5-0.2 0.6-0.6 0.2-0.5 0.2-1.5v-13.1q0-1-0.2-1.4-0.1-0.5-0.6-0.7-0.5-0.2-1.4-0.2zm4.3 9.3v-0.4q1.4 0 2.2 0.1 0.8 0.1 1.3 0.1 0.6 0.1 1 0.1 1.8 0.3 2.6 1.1 0.8 0.8 1.2 2.4l0.6 2.7q0.3 1.2 0.5 1.7 0.3 0.5 0.9 0.5 0.5 0 0.8-0.3 0.3-0.2 0.6-0.7l0.4 0.3q-0.5 0.8-1.1 1.3-0.6 0.4-1.7 0.4-1 0-1.7-0.6-0.8-0.6-1.1-2.3l-0.6-2.6q-0.3-1.1-0.6-2-0.3-0.8-0.8-1.3-0.6-0.5-1.6-0.5zm29.3-9.8v0.5q-0.9 0-1.3 0.3-0.5 0.2-0.6 0.7-0.2 0.6-0.2 1.5v15.9q-0.2 0-0.3 0-0.1 0-0.3 0l-11.1-17.2v14q0 0.9 0.1 1.5 0.2 0.5 0.7 0.7 0.5 0.2 1.6 0.3v0.5q-0.5 0-1.3 0-0.7 0-1.4 0-0.7 0-1.4 0-0.6 0-1.1 0v-0.5q0.9-0.1 1.4-0.3 0.4-0.2 0.6-0.7 0.2-0.6 0.2-1.5v-12.9q0-1-0.2-1.4-0.2-0.5-0.6-0.7-0.5-0.2-1.4-0.2v-0.5q0.5 0 1.1 0 0.7 0.1 1.4 0.1 0.6 0 1.1-0.1 0.5 0 0.9 0l9.4 14.4v-11.4q0-0.9-0.2-1.5-0.2-0.5-0.7-0.7-0.5-0.3-1.5-0.3v-0.5q0.5 0 1.2 0 0.8 0.1 1.5 0.1 0.7 0 1.3-0.1 0.7 0 1.1 0z"/>
	</g>
</svg>